<svg height='100px' width='100px'  fill="#000000" xmlns="http://www.w3.org/2000/svg" xmlns:xlink="http://www.w3.org/1999/xlink" version="1.1" x="0px" y="0px" viewBox="0 0 100 100" enable-background="new 0 0 100 100" xml:space="preserve"><path d="M64.673,72.423c1.863-0.924,3.79-1.88,5.374-3.469c2.369-2.376,3.216-5.698,3.647-7.99c0.085-0.456,0.182-0.92,0.279-1.389  c0.503-2.42,1.072-5.162,0.393-7.813c-0.567-2.209-1.691-3.68-3.341-4.369l-0.001,0.001c-0.153-0.065-0.594-0.25-1.896-0.795v-6.305  c0-3.519-2.863-6.382-6.382-6.382c-1.638,0-3.123,0.666-4.199,1.742c-1.159-1.561-3.011-2.579-5.101-2.579  c-2.047,0-3.866,0.976-5.03,2.483c-0.974-0.936-2.294-1.515-3.748-1.515h-1.381c-1.965,0-3.684,1.055-4.633,2.625  c-0.807-0.548-1.779-0.869-2.826-0.869h-1.25c-2.781,0-5.044,2.263-5.044,5.044v10.761c-0.049,1.107-0.576,15.994,6.013,21.879  c-0.162,0.841-0.434,1.769-0.72,2.739c-0.924,3.133-1.971,6.684,0.028,9.725c0.889,1.352,2.354,2.321,4.355,2.881  c3.835,1.072,8.017,1.646,11.917,1.646c0.444,0,0.886-0.008,1.322-0.022l0.881-0.025c3.977-0.106,9.987-0.267,12.322-4.202  c0.711-1.201,0.942-2.755,0.649-4.375c-0.367-2.03-1.151-3.966-1.911-5.837c-0.405-0.998-0.774-1.949-1.092-2.896  c0.227-0.117,0.453-0.234,0.68-0.348L64.673,72.423z M59.804,39.856c0-1.623,1.32-2.943,2.943-2.943  c1.865,0,3.382,1.517,3.382,3.382v5.049c-0.935-0.392-2.039-0.854-3.362-1.408c-0.97-0.405-1.994-0.499-2.963-0.337V39.856z   M50.088,39.432c0-1.852,1.507-3.357,3.358-3.357s3.357,1.506,3.357,3.357v0.424v5.318c-0.451,0.467-0.828,1.019-1.094,1.653  c-0.898,2.146-0.281,3.917,0.836,5.376c-0.469,1.05-1.522,1.76-2.685,1.76h-0.414c-1.852,0-3.358-1.507-3.358-3.358V39.432z   M40.871,39.46c0-1.333,1.084-2.417,2.417-2.417h1.381c1.333,0,2.418,1.084,2.418,2.417v11.98c0,1.333-1.085,2.417-2.418,2.417  h-1.381c-1.326,0-2.404-1.074-2.415-2.398V40.843c0-0.007-0.002-0.013-0.002-0.019V39.46z M32.535,40.843  c0-1.127,0.917-2.044,2.044-2.044h1.25c1.12,0,2.031,0.907,2.042,2.025v10.617c0,0.013,0.002,0.026,0.002,0.039v0.204  c0,1.127-0.917,2.044-2.044,2.044h-1.25c-1.127,0-2.044-0.917-2.044-2.044V40.843z M62.631,70.089  c-0.384,0.193-0.766,0.391-1.147,0.588c-1.723,0.888-3.349,1.728-5.097,2.221c-0.798,0.225-1.262,1.054-1.036,1.851  c0.187,0.661,0.788,1.093,1.442,1.093c0.135,0,0.272-0.018,0.408-0.057c1.191-0.336,2.31-0.805,3.393-1.315  c0.32,0.904,0.665,1.8,1.019,2.671c0.733,1.811,1.427,3.52,1.738,5.244c0.165,0.909,0.065,1.73-0.278,2.311  c-1.489,2.511-6.705,2.65-9.821,2.733l-0.904,0.026c-3.966,0.137-8.344-0.4-12.328-1.515c-0.883-0.247-2.06-0.731-2.655-1.64  c-1.235-1.879-0.434-4.599,0.342-7.229c0.185-0.63,0.372-1.269,0.534-1.904c0.934,0.377,1.963,0.616,3.107,0.672  c0.025,0.001,0.05,0.002,0.074,0.002c0.795,0,1.458-0.624,1.497-1.427c0.041-0.827-0.598-1.531-1.425-1.571  c-6.844-0.334-8.503-10.393-8.877-16.514c0.604,0.256,1.267,0.398,1.963,0.398h1.25c1.403,0,2.672-0.578,3.587-1.505  c0.984,1.008,2.355,1.636,3.872,1.636h1.381c1.656,0,3.14-0.749,4.134-1.924c0.882,0.945,2.042,1.626,3.354,1.898  c-1.1,1.498-2.12,3.426-2.656,5.826c-0.181,0.809,0.328,1.61,1.137,1.791c0.11,0.024,0.22,0.036,0.328,0.036  c0.688,0,1.307-0.475,1.463-1.173c0.876-3.919,3.349-6.299,4.745-7.369c0.025-0.019,0.044-0.043,0.067-0.063  c0.581-0.405,1.093-0.905,1.501-1.491c0.382,0.313,0.759,0.606,1.109,0.876c0.681,0.525,1.324,1.022,1.777,1.476  c0.586,0.588,1.537,0.586,2.121,0.002c0.587-0.586,0.587-1.535,0.002-2.121c-0.59-0.591-1.308-1.145-2.067-1.731  c-2.803-2.163-3.868-3.323-3.206-4.904c0.51-1.216,1.912-1.794,3.131-1.283c0,0,8.129,3.403,8.259,3.458  c0.736,0.308,1.272,1.098,1.593,2.348c0.508,1.977,0.034,4.254-0.424,6.457c-0.102,0.487-0.201,0.97-0.291,1.444  c-0.576,3.064-1.446,5.047-2.823,6.428c-1.234,1.238-2.86,2.045-4.582,2.898L62.631,70.089z"></path><path d="M91.962,27.664l-15.88,0.183l2.545-17.393c0.156-0.651-0.141-1.328-0.725-1.656c-0.584-0.328-1.316-0.229-1.792,0.245  l-15.62,14.054l-7.106-10.451c-0.258-0.423-0.709-0.69-1.204-0.716c-0.497-0.025-0.97,0.195-1.271,0.591l-7.609,8.243l-15.236-9.305  c-0.494-0.294-1.112-0.279-1.592,0.036c-0.48,0.316-0.737,0.879-0.662,1.448l1.121,12.653l-13.507-0.784  c-0.525-0.007-1.036,0.267-1.313,0.725c-0.277,0.458-0.289,1.029-0.03,1.499l7.414,14.293L8.233,49.225  c-0.473,0.265-0.766,0.766-0.766,1.308s0.293,1.043,0.766,1.308l12.093,5.889l-9.094,10.926c-0.382,0.459-0.456,1.101-0.188,1.634  c0.269,0.534,0.833,0.841,1.423,0.824l15.022-0.826c0,0,1.217-0.049,1.066-0.368c-3.084-7.199-2.956-16.043-2.857-18.401V40.843  c0-4.987,4.057-9.044,9.044-9.044h1.25c0.599,0,1.191,0.059,1.769,0.174c1.619-1.229,3.618-1.93,5.69-1.93h1.381  c1.142,0,2.257,0.205,3.301,0.597c1.619-1.015,3.503-1.566,5.477-1.566c1.958,0,3.862,0.567,5.494,1.591  c1.191-0.494,2.479-0.753,3.807-0.753c5.725,0,10.382,4.657,10.382,10.382v3.665c1.876,0.938,4.099,2.864,5.112,6.809  c0.91,3.551,0.211,6.917-0.353,9.63c-0.091,0.438-0.182,0.872-0.263,1.306c-0.52,2.763-1.572,6.767-4.591,9.9l11.333-3.706  c0.432-0.142,0.777-0.471,0.937-0.896c0.161-0.426,0.12-0.9-0.112-1.292l-3.139-8.363l9.119-8.134  c0.481-0.307,0.747-0.86,0.685-1.428s-0.441-1.051-0.978-1.246l-7.685-5.048l9.893-11.35c0.405-0.465,0.484-1.131,0.2-1.678  S92.577,27.596,91.962,27.664z"></path></svg>